<svg id="content" xmlns="http://www.w3.org/2000/svg" viewBox="0 0 197.75 51.1"><defs><style>.cls-1{opacity:0.1;}.cls-2{fill:#cc0017;}.cls-3{fill:#ddbb50;}.cls-4{fill:#f9f9f9;stroke:#bcbec0;stroke-miterlimit:10;stroke-width:0.25px;}.cls-5{fill:#efefef;}.cls-6{fill:#fff;}</style></defs><g id="board"><g id="board-shadow" class="cls-1"><rect x="59.09" y="4.69" width="52.88" height="42.24" rx="3" transform="translate(4.39 -11.58) rotate(7.95)"/><circle cx="60.37" cy="40.94" r="3.88"/><circle cx="105.33" cy="47.22" r="3.88"/></g><rect id="board-outer" class="cls-2" x="58.36" y="3.07" width="52.88" height="42.24" rx="3" transform="matrix(0.99, 0.14, -0.14, 0.99, 4.16, -11.5)"/><g id="board-logo"><path class="cls-3" d="M73.74,41.15a.34.34,0,0,1-.1-.31.5.5,0,0,1,.1-.24.67.67,0,0,1,.22-.19.8.8,0,0,1,.31-.09.41.41,0,0,1-.12-.14.26.26,0,0,1,0-.15.4.4,0,0,1,.12-.23.71.71,0,0,1,.26-.15.77.77,0,0,1,.34,0,.51.51,0,0,1,.3.11.24.24,0,0,1,.09.23.24.24,0,0,1-.09.16.19.19,0,0,1-.29,0A.2.2,0,0,0,75,40a.16.16,0,0,0,.05-.11.11.11,0,0,0,0-.11.21.21,0,0,0-.11,0,.33.33,0,0,0-.17,0,.25.25,0,0,0-.12.11.2.2,0,0,0-.06.14.27.27,0,0,0,0,.21.37.37,0,0,0,.21.14.57.57,0,0,0-.29.08.67.67,0,0,0-.22.18.43.43,0,0,0-.11.21.23.23,0,0,0,0,.18.29.29,0,0,0,.21.09.71.71,0,0,0,.32,0A.49.49,0,0,0,75,41l.07,0a.8.8,0,0,1-.4.26,1.23,1.23,0,0,1-.54,0A.71.71,0,0,1,73.74,41.15Z"/><path class="cls-3" d="M75,41.34a.24.24,0,0,1-.06-.21A.65.65,0,0,1,75,41l.27-.62h-.1l0-.09.09,0,.14-.31.45,0-.15.35.18,0,0,.09-.18,0-.29.66a.19.19,0,0,0,0,.07.06.06,0,0,0,0,.07.12.12,0,0,0,.09,0,.26.26,0,0,0,.17,0,.33.33,0,0,0,.13-.13l.12,0a.61.61,0,0,1-.33.29.62.62,0,0,1-.35,0A.35.35,0,0,1,75,41.34Z"/><path class="cls-3" d="M75.84,41.44a.3.3,0,0,1-.09-.29,1,1,0,0,1,.13-.34.79.79,0,0,1,.31-.29.76.76,0,0,1,.48-.08.45.45,0,0,1,.25.1.19.19,0,0,1,0,.16.14.14,0,0,1-.06.12.21.21,0,0,1-.12,0,.24.24,0,0,1-.1-.05.38.38,0,0,0,.06-.13.1.1,0,0,0,0-.07.06.06,0,0,0-.06,0,.22.22,0,0,0-.19.09,1,1,0,0,0-.19.25.83.83,0,0,0-.09.28.2.2,0,0,0,0,.16.27.27,0,0,0,.16.06.64.64,0,0,0,.28,0,1.21,1.21,0,0,0,.28-.14l.1,0a1,1,0,0,1-.88.3A.56.56,0,0,1,75.84,41.44Z"/><path class="cls-3" d="M77.7,41.71a.25.25,0,0,1,0-.19l0-.11a1.17,1.17,0,0,1,0-.11.26.26,0,0,0,0-.07l.07-.15a.93.93,0,0,0,0-.13.1.1,0,0,0-.09-.13.23.23,0,0,0-.14,0,.23.23,0,0,0-.11.11l-.32.73-.44-.06.66-1.49.45,0-.25.55a.55.55,0,0,1,.37-.08.53.53,0,0,1,.24.1.24.24,0,0,1,.06.21,1,1,0,0,1,0,.14,1.54,1.54,0,0,1-.09.19l-.06.13,0,.11a.08.08,0,0,0,0,.07.19.19,0,0,0,.09,0h.1a.24.24,0,0,1-.13.16.45.45,0,0,1-.23,0A.31.31,0,0,1,77.7,41.71Z"/><path class="cls-3" d="M78.46,41.18l.6.08-.08.18-.6-.09Z"/><path class="cls-3" d="M79.54,42.28a.22.22,0,0,1-.13-.08.21.21,0,0,1,0-.18.92.92,0,0,1,.18-.39,2.37,2.37,0,0,1,.39-.47H79.7a.17.17,0,0,0-.13.07l0,0a.11.11,0,0,1,0,0s0,.05-.06.06a.23.23,0,0,1-.12,0,.32.32,0,0,1-.13,0,.15.15,0,0,1,0-.11.2.2,0,0,1,.1-.13.68.68,0,0,1,.24-.07h.31l.16,0a2.68,2.68,0,0,1,.58-.41.9.9,0,0,1,.55-.11.7.7,0,0,1,.24.06l-.71,1.62-.43-.06.35-.8-.2-.09-.19,0a3.17,3.17,0,0,0-.36.54,1.49,1.49,0,0,0-.18.45.17.17,0,0,0,0,.13Zm1.4-1.63a.84.84,0,0,0-.3.15c-.1.09-.21.19-.32.31a3.58,3.58,0,0,1,.36.13Z"/><path class="cls-3" d="M81.33,41.58l.6.08-.08.18-.6-.09Z"/><path class="cls-3" d="M82.39,42.42a.49.49,0,0,1-.2-.17.34.34,0,0,1,0-.22.37.37,0,0,1,.08-.18.4.4,0,0,1,.38-.12.48.48,0,0,1,.18.06.19.19,0,0,1,.07.12.53.53,0,0,0-.26,0,.19.19,0,0,0-.11.16.22.22,0,0,0,0,.17.37.37,0,0,0,.2.08.34.34,0,0,0,.27,0,.27.27,0,0,0,.14-.19.33.33,0,0,0,0-.21c0-.07-.11-.16-.2-.27a1.34,1.34,0,0,1-.21-.28.32.32,0,0,1-.06-.23.28.28,0,0,1,.12-.2.52.52,0,0,1,.26-.12,1,1,0,0,1,.35,0,.78.78,0,0,1,.38.14.24.24,0,0,1,.11.25.28.28,0,0,1-.08.15.27.27,0,0,1-.18,0,.26.26,0,0,1-.17-.09.2.2,0,0,0,.1-.08.14.14,0,0,0,0-.1.13.13,0,0,0,0-.12.21.21,0,0,0-.15-.07.26.26,0,0,0-.2,0,.2.2,0,0,0-.1.15.24.24,0,0,0,0,.18,1.5,1.5,0,0,0,.19.23l.17.2a.52.52,0,0,1,.1.18.39.39,0,0,1,0,.21.44.44,0,0,1-.15.25.59.59,0,0,1-.31.14,1.17,1.17,0,0,1-.42,0A1,1,0,0,1,82.39,42.42Z"/><path class="cls-3" d="M84.55,42.68a.24.24,0,0,1-.07-.21.56.56,0,0,1,0-.12l0-.08,0-.09c0-.07,0-.11-.1-.12h-.1a.38.38,0,0,0-.13,0l-.23.55-.44-.06.65-1.5.45,0-.33.77.62-.26.3,0-.64.23h.1A.32.32,0,0,1,85,42a.23.23,0,0,1,.06.2.19.19,0,0,1,0,.08l0,.11a.13.13,0,0,0,0,.07c0,.06,0,.09.11.1a.24.24,0,0,0,.15,0,.92.92,0,0,0,.13-.14l.12,0a.59.59,0,0,1-.61.34A.57.57,0,0,1,84.55,42.68Z"/><path class="cls-3" d="M85.34,42.77a.33.33,0,0,1-.08-.3.87.87,0,0,1,.13-.33.73.73,0,0,1,.31-.29.74.74,0,0,1,.48-.08q.33,0,.3.27a.32.32,0,0,1-.13.22.67.67,0,0,1-.28.14,1,1,0,0,1-.35,0,.44.44,0,0,0,0,.09c0,.08,0,.13,0,.16a.26.26,0,0,0,.15.07.68.68,0,0,0,.29,0l.28-.14h.1a1,1,0,0,1-.88.31A.62.62,0,0,1,85.34,42.77Zm.64-.48a.47.47,0,0,0,.18-.12.32.32,0,0,0,.09-.17c0-.06,0-.1-.06-.1A.29.29,0,0,0,86,42a1.1,1.1,0,0,0-.2.31A.41.41,0,0,0,86,42.29Z"/><path class="cls-3" d="M86.47,42.94a.24.24,0,0,1-.06-.21.65.65,0,0,1,0-.15l.27-.62h-.1l0-.09.1,0,.14-.31.45,0-.16.35.18,0,0,.09-.18,0-.29.66a.19.19,0,0,0,0,.07.06.06,0,0,0,0,.07s0,0,.09,0a.26.26,0,0,0,.17,0,.33.33,0,0,0,.13-.13l.12,0a.61.61,0,0,1-.33.29.64.64,0,0,1-.36,0A.32.32,0,0,1,86.47,42.94Z"/><path class="cls-3" d="M87.29,43a.32.32,0,0,1-.08-.29.85.85,0,0,1,.13-.34.79.79,0,0,1,.31-.29.69.69,0,0,1,.48-.07.39.39,0,0,1,.25.09.19.19,0,0,1,.05.16.16.16,0,0,1-.06.12.21.21,0,0,1-.12,0,.24.24,0,0,1-.1-.05.24.24,0,0,0,0-.13.09.09,0,0,0,0-.07.06.06,0,0,0-.06,0,.22.22,0,0,0-.19.09,1,1,0,0,0-.19.25.83.83,0,0,0-.09.28.2.2,0,0,0,0,.16.27.27,0,0,0,.16.06.64.64,0,0,0,.28,0,1.45,1.45,0,0,0,.28-.14l.1,0a1,1,0,0,1-.88.3A.62.62,0,0,1,87.29,43Z"/><path class="cls-3" d="M89.16,43.31a.22.22,0,0,1,0-.19.26.26,0,0,1,0-.11,1.17,1.17,0,0,1,0-.11.67.67,0,0,1,0-.07l.07-.15a.93.93,0,0,0,0-.13.1.1,0,0,0-.1-.13.22.22,0,0,0-.13,0,.31.31,0,0,0-.12.11l-.31.73-.44-.06.66-1.49.44,0-.24.55a.54.54,0,0,1,.37-.08.53.53,0,0,1,.24.1.24.24,0,0,1,.06.21,1,1,0,0,1,0,.14c0,.05,0,.12-.09.19l-.06.13,0,.11a.08.08,0,0,0,0,.07s0,0,.09,0a.16.16,0,0,0,.1,0,.24.24,0,0,1-.13.16.45.45,0,0,1-.23,0A.31.31,0,0,1,89.16,43.31Z"/></g><rect id="board-inner" class="cls-4" x="63.84" y="6.85" width="42.48" height="30.71" rx="1" transform="matrix(0.99, 0.14, -0.14, 0.99, 3.89, -11.55)"/><g id="board-sketch"><path d="M76,35.22a2.85,2.85,0,0,1-1.4-1.13,3.29,3.29,0,0,1-.34-2.33,18.2,18.2,0,0,1,2.08-5.51,43.14,43.14,0,0,1,4.36-6.69,7.78,7.78,0,0,0-2.56.12,2,2,0,0,0-1.36,1c.08,0,.15.13.22.36a1.56,1.56,0,0,1,0,.68,1,1,0,0,1-.63.83,2.33,2.33,0,0,1-1.31.15A2.08,2.08,0,0,1,73.76,22a1.7,1.7,0,0,1-.34-1.43,2.8,2.8,0,0,1,1.11-1.84A5.85,5.85,0,0,1,77,17.68a10.15,10.15,0,0,1,3.36-.07c.44.07,1,.17,1.63.33a32.36,32.36,0,0,1,6.41-6c2.17-1.46,4.13-2.08,5.88-1.83a6,6,0,0,1,2.43.79l-8.2,22.54L84,32.86l4-11.12A11.78,11.78,0,0,0,84,20a54.74,54.74,0,0,0-4.06,7.53,25.34,25.34,0,0,0-2.06,6.33A2.85,2.85,0,0,0,78,35.7,9.94,9.94,0,0,1,76,35.22ZM91.54,12.06a9.17,9.17,0,0,0-3.2,2.3,31.63,31.63,0,0,0-3.53,4.39,19.38,19.38,0,0,1,3.7,1.64Z"/></g><circle id="left_stick" class="cls-5" cx="59.63" cy="39.32" r="3.88"/><circle id="right_stick" class="cls-5" cx="104.59" cy="45.6" r="3.88"/></g><g id="etch"><path class="cls-6" d="M1.48,36.28a5.69,5.69,0,0,1-1.48-4,9.33,9.33,0,0,1,2.77-6.5A6.76,6.76,0,0,1,5.9,24a4.41,4.41,0,0,1-1.47-1.7A4.87,4.87,0,0,1,4,20.18a6.53,6.53,0,0,1,.91-3.25,7.29,7.29,0,0,1,2.52-2.6,6.58,6.58,0,0,1,3.55-1,5,5,0,0,1,3.29,1,3.61,3.61,0,0,1,1.27,2.94,3.88,3.88,0,0,1-.7,2.36,2,2,0,0,1-1.66.95,1.81,1.81,0,0,1-1.49-.86,1.85,1.85,0,0,0,1-1.05A3.89,3.89,0,0,0,13,17a1.69,1.69,0,0,0-.51-1.36,1.91,1.91,0,0,0-1.25-.43,2.47,2.47,0,0,0-1.67.66,4.22,4.22,0,0,0-1.16,1.69A5.64,5.64,0,0,0,8,19.7a4.64,4.64,0,0,0,.8,2.69A4,4,0,0,0,11.25,24a6,6,0,0,0-2.93,1.59,9,9,0,0,0-2,2.89,7.65,7.65,0,0,0-.73,3.14,3.51,3.51,0,0,0,.75,2.33,2.8,2.8,0,0,0,2.27.89,7.35,7.35,0,0,0,3.34-.88,5.8,5.8,0,0,0,2.56-2.37l.74.32a9.92,9.92,0,0,1-3.83,4.36,10.12,10.12,0,0,1-5.51,1.63A5.72,5.72,0,0,1,1.48,36.28Z"/><path class="cls-6" d="M15.09,36.53a4,4,0,0,1-.94-2.87,11.12,11.12,0,0,1,.26-2.07l1.91-9H15.27l.25-1.27h1.06l1-4.4,4.72-.64-1.08,5h1.91l-.26,1.27H20.91l-2,9.56a4.19,4.19,0,0,0-.13,1,1.14,1.14,0,0,0,.31.91,1.48,1.48,0,0,0,1,.27,2.42,2.42,0,0,0,1.72-.78,4.42,4.42,0,0,0,1.15-2h1.34a8.9,8.9,0,0,1-3,4.67,6.58,6.58,0,0,1-3.67,1.23A3.31,3.31,0,0,1,15.09,36.53Z"/><path class="cls-6" d="M23.81,36.26a5.05,5.05,0,0,1-1.3-3.84,15.67,15.67,0,0,1,.87-4.85A11.48,11.48,0,0,1,26.19,23a6.59,6.59,0,0,1,4.89-1.93,3.74,3.74,0,0,1,2.73.83,2.87,2.87,0,0,1,.81,2.1,2.69,2.69,0,0,1-.48,1.72,1.47,1.47,0,0,1-1.21.61A2.09,2.09,0,0,1,31.81,26a5.49,5.49,0,0,0,.39-1.88,1.75,1.75,0,0,0-.23-1,.75.75,0,0,0-.67-.35c-.63,0-1.27.52-1.91,1.56a14.4,14.4,0,0,0-1.56,3.79,15.72,15.72,0,0,0-.61,4,3,3,0,0,0,.55,2.12,2.36,2.36,0,0,0,1.75.56,5.31,5.31,0,0,0,2.95-.8,14.69,14.69,0,0,0,2.69-2.42h1.08c-2.35,3.93-5.28,5.9-8.76,5.9A5.15,5.15,0,0,1,23.81,36.26Z"/><path class="cls-6" d="M43.64,36.47a4.19,4.19,0,0,1-.76-2.59A8.74,8.74,0,0,1,43,32.37c.11-.56.22-1.11.34-1.64s.2-.87.24-1c.17-.75.33-1.48.48-2.2a9,9,0,0,0,.22-1.75c0-1.09-.38-1.63-1.15-1.63a1.8,1.8,0,0,0-1.38.7,5.24,5.24,0,0,0-1,1.85L38.51,37.3H33.92l4.62-21.68L43.26,15l-1.72,8a4.88,4.88,0,0,1,3.73-1.75,3.66,3.66,0,0,1,2.58.89,3.53,3.53,0,0,1,.95,2.71,10.65,10.65,0,0,1-.22,2.06c-.15.75-.36,1.67-.64,2.75-.17.66-.32,1.31-.46,1.93a7.25,7.25,0,0,0-.21,1.49,1.51,1.51,0,0,0,.29,1,1.19,1.19,0,0,0,1,.35,2,2,0,0,0,1.05-.19,3.63,3.63,0,0,1-1.16,2.46,3.51,3.51,0,0,1-2.34.83A2.87,2.87,0,0,1,43.64,36.47Z"/></g><g id="sketch"><path class="cls-6" d="M119.91,37.21a5.45,5.45,0,0,1-2.36-2,5.23,5.23,0,0,1-.83-2.92,5.51,5.51,0,0,1,.59-2.55,4.8,4.8,0,0,1,1.6-1.82,3.84,3.84,0,0,1,2.21-.67,3.13,3.13,0,0,1,1.88.56,2.42,2.42,0,0,1,1,1.55,3.86,3.86,0,0,0-2.65.87,3.05,3.05,0,0,0,2,5.41,3.7,3.7,0,0,0,2.79-1.14,3.92,3.92,0,0,0,1.1-2.85,5.26,5.26,0,0,0-.83-2.84,27.42,27.42,0,0,0-2.48-3.25,27.21,27.21,0,0,1-2.6-3.39,5.79,5.79,0,0,1-.88-3.11,5,5,0,0,1,.93-3A6.24,6.24,0,0,1,123.93,14a8.47,8.47,0,0,1,3.66-.77,6.51,6.51,0,0,1,4.13,1.22,3.91,3.91,0,0,1,1.55,3.25,3.41,3.41,0,0,1-.67,2.17,2.15,2.15,0,0,1-1.76.82,2.32,2.32,0,0,1-1.94-1,3.21,3.21,0,0,0,1-1.18,3.57,3.57,0,0,0,.35-1.53,2.22,2.22,0,0,0-.61-1.63,2.25,2.25,0,0,0-1.66-.6,2.7,2.7,0,0,0-2.09.9A3.36,3.36,0,0,0,125,18a4.21,4.21,0,0,0,.74,2.38,25.41,25.41,0,0,0,2.29,2.82c.85.91,1.54,1.7,2.06,2.36a10.53,10.53,0,0,1,1.34,2.28,7,7,0,0,1,.55,2.79,6.39,6.39,0,0,1-1.13,3.7A7.78,7.78,0,0,1,127.8,37a9.78,9.78,0,0,1-4.35,1A8.38,8.38,0,0,1,119.91,37.21Z"/><path class="cls-6" d="M142.8,36.59a3.46,3.46,0,0,1-1-2.69,7.83,7.83,0,0,1,.19-1.66l.25-1.24a4.91,4.91,0,0,0,.13-1.18c0-1-.38-1.53-1.15-1.53a2.2,2.2,0,0,0-1.06.29,7.39,7.39,0,0,0-1.3.89l-1.65,7.87H132.6l4.62-21.67,4.72-.64-2.39,11.22,6.15-4.85h3.15l-6.37,4.43a4.32,4.32,0,0,1,1.05-.12,3.26,3.26,0,0,1,2.62,1.05,4,4,0,0,1,.89,2.68,5.61,5.61,0,0,1-.13,1.21l-.35,1.59a3.75,3.75,0,0,0-.16,1c0,.79.41,1.18,1.24,1.18a1.9,1.9,0,0,0,1.53-.68,7.9,7.9,0,0,0,1.15-2.12h1.34c-1.32,3.93-3.27,5.89-5.87,5.89A4.26,4.26,0,0,1,142.8,36.59Z"/><path class="cls-6" d="M151.21,36.31a5.05,5.05,0,0,1-1.3-3.84,15.58,15.58,0,0,1,.86-4.85,11.24,11.24,0,0,1,2.8-4.57,6.72,6.72,0,0,1,4.94-1.93q3.51,0,3.51,3.06a5.7,5.7,0,0,1-1,3.28,7.53,7.53,0,0,1-2.71,2.41,8.78,8.78,0,0,1-3.6,1c0,.64-.07,1.07-.07,1.28a3,3,0,0,0,.55,2.12,2.36,2.36,0,0,0,1.75.56,5.31,5.31,0,0,0,3-.8,14.37,14.37,0,0,0,2.69-2.42h1.09q-3.54,5.89-8.77,5.89A5.15,5.15,0,0,1,151.21,36.31Zm6-7.77a5.74,5.74,0,0,0,1.72-1.94,5,5,0,0,0,.66-2.49c0-.87-.27-1.3-.8-1.3-.77,0-1.52.67-2.25,2a15.44,15.44,0,0,0-1.58,4.56A4.18,4.18,0,0,0,157.19,28.54Z"/><path class="cls-6" d="M163.25,36.58a3.94,3.94,0,0,1-.94-2.87,11,11,0,0,1,.25-2.07l1.91-9h-1.05l.26-1.28h1l1-4.4,4.71-.63-1.08,5h1.91L171,22.68h-1.92l-2,9.56a4.19,4.19,0,0,0-.12,1,1.17,1.17,0,0,0,.3.91,1.5,1.5,0,0,0,1,.27,2.42,2.42,0,0,0,1.72-.78,4.33,4.33,0,0,0,1.15-2h1.34c-.79,2.29-1.79,3.85-3,4.67a6.56,6.56,0,0,1-3.66,1.22A3.32,3.32,0,0,1,163.25,36.58Z"/><path class="cls-6" d="M172,36.31a5,5,0,0,1-1.31-3.84,15.36,15.36,0,0,1,.88-4.85,11.34,11.34,0,0,1,2.8-4.57,6.62,6.62,0,0,1,4.89-1.93A3.69,3.69,0,0,1,182,22a2.87,2.87,0,0,1,.81,2.1,2.71,2.71,0,0,1-.48,1.72,1.49,1.49,0,0,1-1.21.61A2,2,0,0,1,180,26a5.65,5.65,0,0,0,.38-1.88,1.83,1.83,0,0,0-.22-.95.74.74,0,0,0-.67-.35q-1,0-1.92,1.56A15,15,0,0,0,176,28.16a15.67,15.67,0,0,0-.6,4,3.09,3.09,0,0,0,.54,2.12,2.36,2.36,0,0,0,1.75.56,5.31,5.31,0,0,0,3-.8,14.06,14.06,0,0,0,2.69-2.42h1.09q-3.54,5.89-8.77,5.89A5.12,5.12,0,0,1,172,36.31Z"/><path class="cls-6" d="M191.79,36.51a4.18,4.18,0,0,1-.76-2.58,7.93,7.93,0,0,1,.16-1.51c.1-.57.22-1.11.33-1.64s.2-.88.24-1c.17-.75.33-1.48.48-2.2a9.07,9.07,0,0,0,.22-1.76q0-1.62-1.14-1.62a1.8,1.8,0,0,0-1.39.7,5.24,5.24,0,0,0-1,1.85l-2.26,10.61h-4.59l4.62-21.67,4.72-.64-1.72,8a4.88,4.88,0,0,1,3.73-1.75,3.61,3.61,0,0,1,2.58.89,3.52,3.52,0,0,1,1,2.71,10.62,10.62,0,0,1-.23,2.05q-.22,1.14-.63,2.76c-.17.66-.33,1.3-.47,1.93a7.88,7.88,0,0,0-.2,1.48,1.52,1.52,0,0,0,.28,1,1.21,1.21,0,0,0,1,.35,2,2,0,0,0,1.05-.19,3.63,3.63,0,0,1-1.16,2.46,3.5,3.5,0,0,1-2.34.82A2.87,2.87,0,0,1,191.79,36.51Z"/></g></svg>